<svg width="19" height="14" viewBox="0 0 19 14" fill="none" xmlns="http://www.w3.org/2000/svg">
<path d="M15.0747 2.82558H7.27471V7.55918H6.44393V5.95016C6.44297 5.03853 6.0965 4.16452 5.48053 3.51989C4.86457 2.87526 4.02941 2.51266 3.15829 2.51163H1.27471V0H0.074707V13.5H1.27471V11.6264L16.8747 11.757V13.5H18.0747V5.96512C18.0738 5.13275 17.7574 4.33475 17.195 3.74617C16.6326 3.1576 15.8701 2.82653 15.0747 2.82558ZM1.27471 3.76744H3.15829C3.71125 3.7681 4.24137 3.99826 4.63237 4.40745C5.02337 4.81663 5.24331 5.37141 5.24393 5.95009V7.5591H1.27471V3.76744ZM16.8747 10.5011L1.27471 10.3705V8.81499H16.8747V10.5011ZM16.8747 7.55918H8.47471V4.0814H15.0747C15.5519 4.08197 16.0094 4.28061 16.3469 4.63376C16.6843 4.9869 16.8742 5.4657 16.8747 5.96512V7.55918Z" fill="#4D94FF"/>
</svg>
