<svg width="16" height="18" viewBox="0 0 16 18" fill="none" xmlns="http://www.w3.org/2000/svg">
<path d="M15.3734 13.9589L8.66384 17.8326C8.47325 17.9423 8.25722 18 8.03733 18C7.81744 18 7.60141 17.9423 7.41082 17.8326L0.701213 13.9589C0.510977 13.8486 0.352999 13.6904 0.24306 13.5C0.133121 13.3095 0.0750685 13.0936 0.0747023 12.8737V5.12626C0.0750647 4.90638 0.133115 4.69044 0.243054 4.50002C0.352994 4.3096 0.510974 4.15136 0.701213 4.0411L7.41078 0.167354C7.60137 0.0577068 7.81741 0 8.03729 0C8.25717 0 8.47321 0.0577068 8.6638 0.167354L15.3734 4.0411C15.5636 4.15135 15.7216 4.30959 15.8315 4.50002C15.9415 4.69044 15.9995 4.90638 15.9999 5.12626V12.8738C15.9995 13.0936 15.9415 13.3096 15.8315 13.5C15.7216 13.6904 15.5636 13.8487 15.3734 13.9589ZM7.41082 1.61424L1.32776 5.12626V12.0718L7.41082 8.63358V1.61424ZM8.03933 9.71763L1.88563 13.1959L8.03717 16.7474L14.191 13.1947L8.03933 9.71763ZM14.7469 5.12626L8.66384 1.61424V8.63115L14.7469 12.0695V5.12626Z" fill="#4D94FF"/>
</svg>
